# xmcd
#
# Track frame offsets:
#	182
#	19957
#	37167
#	53952
#	70552
#	87587
#	111552
#	131765
#	152232
#	170200
#	187882
#	203802
#
# Disc length: 2997 seconds
#
# Revision: 2
# Processed by: cddbd v1.5.2PL0 Copyright (c) Steve Scherf et al.
# Submitted via: EasyCDDAExtractor 11.0.2.1
#
DISCID=b30bb30c
DTITLE=Rocio Jurado - Los Grandes Exitos De Rocio Jurado - 1983
DYEAR=1983
DGENRE=Latin
TTITLE0=Como Una Ola
TTITLE1=Lo Siento Mi Amor
TTITLE2=Me Hubiera Gustado Tanto
TTITLE3=Quiero Olvidarte Ahora
TTITLE4=Muera El Amor
TTITLE5=Si Amanece
TTITLE6=Señora
TTITLE7=Ese Hombre
TTITLE8=Mi Amante Amigo
TTITLE9=Cuentale
TTITLE10=Lo Vas A Conseguir
TTITLE11=Como Yo Te Amo
EXTD=
EXTT0=
EXTT1=
EXTT2=
EXTT3=
EXTT4=
EXTT5=
EXTT6=
EXTT7=
EXTT8=
EXTT9=
EXTT10=
EXTT11=
PLAYORDER=
